<svg xmlns="http://www.w3.org/2000/svg" width="200" height="200" stroke="gray">
    <g strokeWidth="2" fill="#FFF">
        <circle cx="100" cy="100" r="88"/>
        <circle cx="100" cy="100" r="66"/>
        <circle cx="100" cy="100" r="44"/>
        <circle cx="100" cy="100" r="22"/>
        <path d="m100,12v176m62-26-124-124m124,0-124,124m150-62H12"/>
    </g>
    <g opacity=".8">
        <path fill="#44C" d="m100,100h18a18,18 0 0,0 0-5z"/>
        <path fill="#BC3" d="m100,100 34-43a55,55 0 0,0-15-8z"/>
        <path fill="#D93" d="m100,100-16-72a74,74 0 0,0-31,15z"/>
        <path fill="#DB3" d="m100,100-58-28a65,65 0 0,0-5,39z"/>
        <path fill="#3BB" d="m100,100-33,16a37,37 0 0,0 2,5z"/>
        <path fill="#3C9" d="m100,100-10,45a46,46 0 0,0 18,0z"/>
        <path fill="#D73" d="m100,100 46,58a74,74 0 0,0 12-12z"/>
    </g>
</svg>
